<mxfile host="65bd71144e">
    <diagram id="yd66e7nmUdR6AGph9s9_" name="Page-1">
        <mxGraphModel dx="5369" dy="1469" grid="1" gridSize="10" guides="1" tooltips="1" connect="1" arrows="1" fold="1" page="1" pageScale="1" pageWidth="850" pageHeight="1100" math="0" shadow="0">
            <root>
                <mxCell id="0"/>
                <mxCell id="1" parent="0"/>
                <mxCell id="66" style="edgeStyle=none;html=1;exitX=0.5;exitY=0.5;exitDx=0;exitDy=0;exitPerimeter=0;entryX=0;entryY=0.5;entryDx=0;entryDy=0;fontSize=25;fontColor=#000000;strokeWidth=2;" edge="1" parent="1" source="6" target="38">
                    <mxGeometry relative="1" as="geometry">
                        <Array as="points">
                            <mxPoint x="-935" y="500"/>
                            <mxPoint x="-935" y="285"/>
                        </Array>
                    </mxGeometry>
                </mxCell>
                <mxCell id="68" style="edgeStyle=none;html=1;exitX=0.5;exitY=0.5;exitDx=0;exitDy=0;exitPerimeter=0;entryX=0;entryY=0.5;entryDx=0;entryDy=0;fontSize=25;fontColor=#000000;strokeWidth=2;" edge="1" parent="1" source="6" target="52">
                    <mxGeometry relative="1" as="geometry">
                        <Array as="points">
                            <mxPoint x="-1095" y="500"/>
                            <mxPoint x="-1095" y="550"/>
                        </Array>
                    </mxGeometry>
                </mxCell>
                <mxCell id="69" style="edgeStyle=none;html=1;exitX=0.5;exitY=0.5;exitDx=0;exitDy=0;exitPerimeter=0;entryX=0;entryY=0;entryDx=0;entryDy=0;fontSize=25;fontColor=#000000;strokeWidth=2;" edge="1" parent="1" source="6" target="10">
                    <mxGeometry relative="1" as="geometry">
                        <Array as="points">
                            <mxPoint x="-1055" y="500"/>
                            <mxPoint x="-1055" y="530"/>
                            <mxPoint x="-815" y="530"/>
                            <mxPoint x="-815" y="430"/>
                            <mxPoint x="-386" y="430"/>
                        </Array>
                    </mxGeometry>
                </mxCell>
                <mxCell id="70" style="edgeStyle=none;html=1;exitX=0.5;exitY=0.5;exitDx=0;exitDy=0;exitPerimeter=0;entryX=0.5;entryY=1;entryDx=0;entryDy=0;fontSize=25;fontColor=#000000;strokeWidth=2;" edge="1" parent="1" source="6" target="45">
                    <mxGeometry relative="1" as="geometry">
                        <Array as="points">
                            <mxPoint x="-1115" y="500"/>
                            <mxPoint x="-1115" y="680"/>
                            <mxPoint x="5" y="680"/>
                        </Array>
                    </mxGeometry>
                </mxCell>
                <mxCell id="6" value="Fonctionnaire&lt;br style=&quot;font-size: 30px;&quot;&gt;" style="shape=umlActor;verticalLabelPosition=bottom;verticalAlign=top;html=1;outlineConnect=0;fillColor=#a0522d;strokeColor=#6D1F00;strokeWidth=5;fontSize=30;fontColor=#000000;gradientColor=default;fontStyle=1" parent="1" vertex="1">
                    <mxGeometry x="-1226" y="420" width="80" height="160" as="geometry"/>
                </mxCell>
                <mxCell id="54" style="edgeStyle=none;html=1;exitX=0.5;exitY=0.5;exitDx=0;exitDy=0;exitPerimeter=0;fontSize=20;entryX=0.5;entryY=0;entryDx=0;entryDy=0;strokeWidth=2;" edge="1" parent="1" source="7" target="53">
                    <mxGeometry relative="1" as="geometry">
                        <mxPoint x="-475" y="830" as="targetPoint"/>
                        <Array as="points">
                            <mxPoint x="-1095" y="730"/>
                            <mxPoint x="-1095" y="840"/>
                            <mxPoint x="-975" y="840"/>
                            <mxPoint x="-475" y="840"/>
                        </Array>
                    </mxGeometry>
                </mxCell>
                <mxCell id="71" style="edgeStyle=none;html=1;exitX=0.5;exitY=0.5;exitDx=0;exitDy=0;exitPerimeter=0;entryX=0.668;entryY=1.001;entryDx=0;entryDy=0;entryPerimeter=0;fontSize=25;fontColor=#000000;strokeWidth=2;" edge="1" parent="1" source="7" target="45">
                    <mxGeometry relative="1" as="geometry">
                        <Array as="points">
                            <mxPoint x="-1055" y="730"/>
                            <mxPoint x="39" y="730"/>
                        </Array>
                    </mxGeometry>
                </mxCell>
                <mxCell id="72" style="edgeStyle=none;html=1;exitX=0.5;exitY=0.5;exitDx=0;exitDy=0;exitPerimeter=0;entryX=0.5;entryY=1;entryDx=0;entryDy=0;fontSize=25;fontColor=#000000;strokeWidth=2;" edge="1" parent="1" source="7" target="46">
                    <mxGeometry relative="1" as="geometry">
                        <Array as="points">
                            <mxPoint x="-1095" y="730"/>
                            <mxPoint x="-1095" y="790"/>
                            <mxPoint x="165" y="790"/>
                        </Array>
                    </mxGeometry>
                </mxCell>
                <mxCell id="7" value="Entité&lt;br style=&quot;font-size: 30px;&quot;&gt;" style="shape=umlActor;verticalLabelPosition=bottom;verticalAlign=top;html=1;outlineConnect=0;fillColor=#a0522d;strokeColor=#6D1F00;fontSize=30;fontColor=#000000;gradientColor=default;strokeWidth=5;fontStyle=1" parent="1" vertex="1">
                    <mxGeometry x="-1225" y="650" width="80" height="160" as="geometry"/>
                </mxCell>
                <mxCell id="65" style="edgeStyle=none;html=1;exitX=0.5;exitY=0.5;exitDx=0;exitDy=0;exitPerimeter=0;fontSize=25;fontColor=#000000;entryX=0.5;entryY=0;entryDx=0;entryDy=0;strokeWidth=2;" edge="1" parent="1" source="8" target="10">
                    <mxGeometry relative="1" as="geometry">
                        <mxPoint x="-1095" y="248" as="targetPoint"/>
                        <Array as="points">
                            <mxPoint x="-1055" y="248"/>
                            <mxPoint x="-1055" y="180"/>
                            <mxPoint x="-315" y="180"/>
                        </Array>
                    </mxGeometry>
                </mxCell>
                <mxCell id="8" value="Visiteur" style="shape=umlActor;verticalLabelPosition=bottom;verticalAlign=top;html=1;outlineConnect=0;fillColor=#a0522d;strokeColor=#6D1F00;fontSize=30;strokeWidth=5;fontColor=#000000;gradientColor=default;fontStyle=1" parent="1" vertex="1">
                    <mxGeometry x="-1226" y="168" width="80" height="160" as="geometry"/>
                </mxCell>
                <mxCell id="15" value="Système" style="swimlane;whiteSpace=wrap;html=1;fillColor=#f5f5f5;gradientColor=#b3b3b3;strokeColor=#666666;strokeWidth=5;rounded=1;glass=0;shadow=0;swimlaneLine=1;fontSize=20;startSize=40;" parent="1" vertex="1">
                    <mxGeometry x="-1015" y="70" width="1400" height="1370" as="geometry"/>
                </mxCell>
                <mxCell id="10" value="Lire une publication&lt;br style=&quot;font-size: 20px;&quot;&gt;" style="ellipse;html=1;fillColor=#E6D0DE;strokeColor=#996185;fontColor=#000000;gradientColor=#D5739D;fontSize=20;labelBackgroundColor=none;whiteSpace=wrap;labelBorderColor=none;shadow=1;" parent="15" vertex="1">
                    <mxGeometry x="600" y="380" width="200" height="200" as="geometry"/>
                </mxCell>
                <mxCell id="45" value="S'authentifier" style="ellipse;html=1;fillColor=#E6D0DE;strokeColor=#996185;fontColor=#000000;gradientColor=#D5739D;fontSize=20;labelBackgroundColor=none;whiteSpace=wrap;labelBorderColor=none;shadow=1;" vertex="1" parent="15">
                    <mxGeometry x="920" y="380" width="200" height="200" as="geometry"/>
                </mxCell>
                <mxCell id="46" value="&lt;span style=&quot;font-size: 20px;&quot;&gt;Faire une&amp;nbsp;&lt;/span&gt;&lt;br style=&quot;border-color: var(--border-color); font-size: 20px;&quot;&gt;&lt;span style=&quot;font-size: 20px;&quot;&gt;publication&lt;/span&gt;" style="ellipse;html=1;fillColor=#E6D0DE;strokeColor=#996185;fontColor=#000000;gradientColor=#D5739D;fontSize=20;labelBackgroundColor=none;whiteSpace=wrap;labelBorderColor=none;shadow=1;" vertex="1" parent="15">
                    <mxGeometry x="1080" y="118" width="200" height="200" as="geometry"/>
                </mxCell>
                <mxCell id="48" value="&lt;span style=&quot;font-size: 20px;&quot;&gt;Ajouter&lt;/span&gt;&lt;br style=&quot;border-color: var(--border-color); font-size: 20px;&quot;&gt;&lt;span style=&quot;font-size: 20px;&quot;&gt;un bulletin&lt;/span&gt;" style="ellipse;html=1;fillColor=#E6D0DE;strokeColor=#996185;fontColor=#000000;gradientColor=#D5739D;fontSize=20;labelBackgroundColor=none;whiteSpace=wrap;labelBorderColor=none;shadow=1;" vertex="1" parent="15">
                    <mxGeometry x="1080" y="800" width="200" height="200" as="geometry"/>
                </mxCell>
                <mxCell id="49" value="Consulter les informations d'un fonctionnair" style="ellipse;html=1;fillColor=#E6D0DE;strokeColor=#996185;fontColor=#000000;gradientColor=#D5739D;fontSize=20;labelBackgroundColor=none;whiteSpace=wrap;labelBorderColor=none;shadow=1;" vertex="1" parent="15">
                    <mxGeometry x="760" y="800" width="200" height="200" as="geometry"/>
                </mxCell>
                <mxCell id="52" value="Mettre à jour son profil" style="ellipse;html=1;fillColor=#E6D0DE;strokeColor=#996185;fontColor=#000000;gradientColor=#D5739D;fontSize=20;labelBackgroundColor=none;whiteSpace=wrap;labelBorderColor=none;shadow=1;" vertex="1" parent="15">
                    <mxGeometry x="280" y="380" width="200" height="200" as="geometry"/>
                </mxCell>
                <mxCell id="53" value="&lt;span style=&quot;font-size: 20px;&quot;&gt;Supprimer &lt;br&gt;une&amp;nbsp;&lt;/span&gt;&lt;br style=&quot;border-color: var(--border-color); font-size: 20px;&quot;&gt;&lt;span style=&quot;font-size: 20px;&quot;&gt;publication&lt;/span&gt;" style="ellipse;html=1;fillColor=#E6D0DE;strokeColor=#996185;fontColor=#000000;gradientColor=#D5739D;fontSize=20;labelBackgroundColor=none;whiteSpace=wrap;labelBorderColor=none;shadow=1;fontStyle=0" vertex="1" parent="15">
                    <mxGeometry x="440" y="800" width="200" height="200" as="geometry"/>
                </mxCell>
                <mxCell id="56" value="Restraindre&lt;br&gt;un utilisateur" style="ellipse;html=1;fillColor=#E6D0DE;strokeColor=#996185;fontColor=#000000;gradientColor=#D5739D;fontSize=20;labelBackgroundColor=none;whiteSpace=wrap;labelBorderColor=none;shadow=1;" vertex="1" parent="15">
                    <mxGeometry x="120" y="800" width="200" height="200" as="geometry"/>
                </mxCell>
                <mxCell id="38" value="&lt;span style=&quot;font-size: 20px;&quot;&gt;Télécharger&lt;/span&gt;&lt;br style=&quot;border-color: var(--border-color); font-size: 20px;&quot;&gt;&lt;span style=&quot;font-size: 20px;&quot;&gt;un bulletin&lt;/span&gt;" style="ellipse;html=1;fillColor=#E6D0DE;strokeColor=#996185;fontColor=#000000;gradientColor=#D5739D;fontSize=20;labelBackgroundColor=none;whiteSpace=wrap;labelBorderColor=none;shadow=1;" vertex="1" parent="15">
                    <mxGeometry x="120" y="116" width="200" height="200" as="geometry"/>
                </mxCell>
                <mxCell id="58" style="edgeStyle=none;html=1;exitX=0.5;exitY=0.5;exitDx=0;exitDy=0;exitPerimeter=0;entryX=0;entryY=0;entryDx=0;entryDy=0;fontSize=20;strokeWidth=2;" edge="1" parent="1" source="57" target="56">
                    <mxGeometry relative="1" as="geometry">
                        <Array as="points">
                            <mxPoint x="-925" y="950"/>
                            <mxPoint x="-925" y="899"/>
                        </Array>
                    </mxGeometry>
                </mxCell>
                <mxCell id="59" style="edgeStyle=none;html=1;exitX=0.5;exitY=0.5;exitDx=0;exitDy=0;exitPerimeter=0;entryX=0.1;entryY=0.8;entryDx=0;entryDy=0;fontSize=20;entryPerimeter=0;strokeWidth=2;" edge="1" parent="1" source="57" target="53">
                    <mxGeometry relative="1" as="geometry">
                        <Array as="points">
                            <mxPoint x="-975" y="950"/>
                            <mxPoint x="-975" y="1090"/>
                            <mxPoint x="-615" y="1090"/>
                            <mxPoint x="-615" y="1030"/>
                        </Array>
                    </mxGeometry>
                </mxCell>
                <mxCell id="80" style="edgeStyle=none;html=1;exitX=0;exitY=1;exitDx=0;exitDy=0;exitPerimeter=0;entryX=0.273;entryY=0.034;entryDx=0;entryDy=0;entryPerimeter=0;strokeWidth=2;fontSize=30;fontColor=#000000;" edge="1" parent="1" source="57" target="45">
                    <mxGeometry relative="1" as="geometry">
                        <Array as="points">
                            <mxPoint x="-1225" y="950"/>
                            <mxPoint x="-1320" y="950"/>
                            <mxPoint x="-1320" y="140"/>
                            <mxPoint x="-40" y="140"/>
                        </Array>
                    </mxGeometry>
                </mxCell>
                <mxCell id="57" value="Technicien&lt;br style=&quot;font-size: 30px;&quot;&gt;" style="shape=umlActor;verticalLabelPosition=bottom;verticalAlign=top;html=1;outlineConnect=0;fillColor=#a0522d;strokeColor=#6D1F00;fontSize=30;fontColor=#000000;gradientColor=default;labelBackgroundColor=none;strokeWidth=5;fontStyle=1" vertex="1" parent="1">
                    <mxGeometry x="-1225" y="870" width="80" height="160" as="geometry"/>
                </mxCell>
                <mxCell id="75" style="edgeStyle=none;html=1;exitX=0.5;exitY=0.5;exitDx=0;exitDy=0;exitPerimeter=0;entryX=0.5;entryY=1;entryDx=0;entryDy=0;strokeWidth=2;fontSize=30;fontColor=#000000;" edge="1" parent="1" source="74" target="53">
                    <mxGeometry relative="1" as="geometry">
                        <Array as="points">
                            <mxPoint x="-1095" y="1240"/>
                            <mxPoint x="-1095" y="1150"/>
                            <mxPoint x="-475" y="1150"/>
                        </Array>
                    </mxGeometry>
                </mxCell>
                <mxCell id="76" style="edgeStyle=none;html=1;exitX=0.5;exitY=0.5;exitDx=0;exitDy=0;exitPerimeter=0;entryX=0.5;entryY=1;entryDx=0;entryDy=0;strokeWidth=2;fontSize=30;fontColor=#000000;" edge="1" parent="1" source="74" target="49">
                    <mxGeometry relative="1" as="geometry">
                        <Array as="points">
                            <mxPoint x="-1055" y="1240"/>
                            <mxPoint x="-1055" y="1190"/>
                            <mxPoint x="-155" y="1190"/>
                        </Array>
                    </mxGeometry>
                </mxCell>
                <mxCell id="77" style="edgeStyle=none;html=1;exitX=0.5;exitY=0.5;exitDx=0;exitDy=0;exitPerimeter=0;entryX=0.5;entryY=1;entryDx=0;entryDy=0;strokeWidth=2;fontSize=30;fontColor=#000000;" edge="1" parent="1" source="74" target="48">
                    <mxGeometry relative="1" as="geometry">
                        <Array as="points">
                            <mxPoint x="-1065" y="1240"/>
                            <mxPoint x="-1065" y="1270"/>
                            <mxPoint x="165" y="1270"/>
                        </Array>
                    </mxGeometry>
                </mxCell>
                <mxCell id="78" style="edgeStyle=none;html=1;exitX=0.5;exitY=0.5;exitDx=0;exitDy=0;exitPerimeter=0;entryX=0.613;entryY=0.997;entryDx=0;entryDy=0;entryPerimeter=0;strokeWidth=2;fontSize=30;fontColor=#000000;" edge="1" parent="1" source="74" target="46">
                    <mxGeometry relative="1" as="geometry">
                        <Array as="points">
                            <mxPoint x="-1075" y="1240"/>
                            <mxPoint x="-1075" y="1310"/>
                            <mxPoint x="285" y="1310"/>
                            <mxPoint x="285" y="790"/>
                            <mxPoint x="188" y="790"/>
                        </Array>
                    </mxGeometry>
                </mxCell>
                <mxCell id="79" style="edgeStyle=none;html=1;exitX=0.5;exitY=0.5;exitDx=0;exitDy=0;exitPerimeter=0;entryX=0.5;entryY=0;entryDx=0;entryDy=0;strokeWidth=2;fontSize=30;fontColor=#000000;" edge="1" parent="1" source="74" target="45">
                    <mxGeometry relative="1" as="geometry">
                        <Array as="points">
                            <mxPoint x="-1115" y="1240"/>
                            <mxPoint x="-1115" y="1350"/>
                            <mxPoint x="335" y="1350"/>
                            <mxPoint x="335" y="150"/>
                            <mxPoint x="5" y="150"/>
                        </Array>
                    </mxGeometry>
                </mxCell>
                <mxCell id="74" value="CASEF" style="shape=umlActor;verticalLabelPosition=bottom;verticalAlign=top;html=1;outlineConnect=0;fillColor=#a0522d;strokeColor=#6D1F00;fontSize=30;fontColor=#000000;gradientColor=default;labelBackgroundColor=none;strokeWidth=5;fontStyle=1" vertex="1" parent="1">
                    <mxGeometry x="-1235" y="1160" width="80" height="160" as="geometry"/>
                </mxCell>
            </root>
        </mxGraphModel>
    </diagram>
</mxfile>